<svg width="520" height="176" viewBox="0 0 520 176" fill="none" xmlns="http://www.w3.org/2000/svg">
  <defs>
    <linearGradient id="ribbon" x1="30" y1="30" x2="150" y2="150" gradientUnits="userSpaceOnUse">
      <stop stop-color="#F0B35A"/>
      <stop offset="0.42" stop-color="#3BC4A8"/>
      <stop offset="1" stop-color="#1A6B78"/>
    </linearGradient>
  </defs>
  <!-- mark -->
  <g transform="translate(0,0)">
    <rect x="6" y="6" width="164" height="164" rx="38" fill="#0C1216"/>
    <path fill="url(#ribbon)" fill-rule="evenodd"
      d="M40 54c0-8 7-14 16-14h62c15 0 25 10 25 23s-10 22-24 22H102v42c0 12-10 22-22 22s-22-10-22-22V86c0-8-5-12-13-12s-13-7-13-15c0-8 4-15 8-15z
         M56 57c-4 0-6 3-6 6s2 6 6 6h50c8 0 13-4 13-9s-5-9-13-9H62c-3 0-6 2-6 6z
         M80 90c5 0 9 4 9 9v24c0 5-4 9-9 9s-9-4-9-9v-24c0-5 4-9 9-9z"/>
    <g fill="#0C1216">
      <rect x="48" y="44" width="5" height="7" rx="1.5"/>
      <rect x="62" y="44" width="5" height="7" rx="1.5"/>
      <rect x="76" y="44" width="5" height="7" rx="1.5"/>
      <rect x="90" y="44" width="5" height="7" rx="1.5"/>
    </g>
  </g>
  <!-- wordmark -->
  <text x="196" y="108" fill="#F4F0E8" font-family="Bahnschrift, Segoe UI, Inter, Arial, sans-serif" font-size="64" font-weight="600" letter-spacing="1.5">Tezeusz</text>
</svg>
