<svg width="96" height="96" viewBox="0 0 96 96" fill="none" xmlns="http://www.w3.org/2000/svg">
  <defs>
    <linearGradient id="tzFill" x1="12" y1="8" x2="88" y2="90" gradientUnits="userSpaceOnUse">
      <stop stop-color="#F0A35E"/>
      <stop offset="0.55" stop-color="#2BBBAD"/>
      <stop offset="1" stop-color="#1B6B7A"/>
    </linearGradient>
    <linearGradient id="tzShine" x1="28" y1="10" x2="28" y2="48" gradientUnits="userSpaceOnUse">
      <stop stop-color="#fff" stop-opacity="0.35"/>
      <stop offset="1" stop-color="#fff" stop-opacity="0"/>
    </linearGradient>
  </defs>
  <rect x="8" y="8" width="80" height="80" rx="22" fill="#0F1A1C"/>
  <path d="M20 28c0-8.284 6.716-15 15-15h26c8.284 0 15 6.716 15 15v40c0 14.5-11.5 26.5-28 32.5-16.5-6-28-18-28-32.5V28z" fill="url(#tzFill)"/>
  <path d="M35 13h26c8.284 0 15 6.716 15 15v6H20v-6c0-8.284 6.716-15 15-15z" fill="url(#tzShine)"/>
  <rect x="14" y="34" width="8" height="6" rx="2" fill="#0F1A1C"/>
  <rect x="14" y="48" width="8" height="6" rx="2" fill="#0F1A1C"/>
  <rect x="14" y="62" width="8" height="6" rx="2" fill="#0F1A1C"/>
  <rect x="74" y="34" width="8" height="6" rx="2" fill="#0F1A1C"/>
  <rect x="74" y="48" width="8" height="6" rx="2" fill="#0F1A1C"/>
  <rect x="74" y="62" width="8" height="6" rx="2" fill="#0F1A1C"/>
  <path d="M35 38h26v5H52.5v25h-9V43H35V38z" fill="#F7F3EB"/>
</svg>
